# xmcd
#
# Track frame offsets:
#	150
#	12648
#	26497
#	40956
#	59615
#	73977
#	92490
#	108641
#	122562
#	138170
#	155820
#	173927
#	188759
#
# Disc length: 2711 seconds
#
# Revision: 0
# Processed by: cddbd v1.5.2PL0 Copyright (c) Steve Scherf et al.
# Submitted via: dBpowerAMP V4.0
#
DISCID=ba0a950d
DTITLE=Various Artist - CDX 476 June 2009
DYEAR=2009
DGENRE=Country
TTITLE0=01 - Rodney Atkins - 15 Minutes
TTITLE1=02 - Craig Morgan - Bonfire
TTITLE2=03 - Jake Owen - Eight Second Ride
TTITLE3=04 - Trent Tomlinson - Henery Cartwright's Produce Stand
TTITLE4=05 - Trailer Choir - Rockin' The Beer Gut
TTITLE5=06 - Rascal Flatts - Summer Nights
TTITLE6=07 - Sonny Marshall - I'd Rather Be In Love
TTITLE7=08 - Camille - Kick Up The Dust
TTITLE8=09 - Darren Kozelsky - Seven Vern Gosdins Ago
TTITLE9=10 - Rockit Roger Richardson - The 1st Cowboy In Space
TTITLE10=11 - Allen Karl - My Final Rose
TTITLE11=12 - Joe Elmore - My Old Belair
TTITLE12=Actor John Amos from TV Good Time - We Were Hippies
EXTD=
EXTT0=
EXTT1=
EXTT2=
EXTT3=
EXTT4=
EXTT5=
EXTT6=
EXTT7=
EXTT8=
EXTT9=
EXTT10=
EXTT11=
EXTT12=
PLAYORDER=
